<!-- icon666.com - MILLIONS vector ICONS FREE --><svg clip-rule="evenodd" fill-rule="evenodd" stroke-linejoin="round" stroke-miterlimit="2" viewBox="0 0 134 134" xmlns="http://www.w3.org/2000/svg"><path d="m47.731 13.287c.354-.783.186-1.703-.421-2.31-.608-.608-1.528-.775-2.31-.421-20.373 9.22-34.564 29.736-34.564 53.54 0 32.418 26.32 58.737 58.737 58.737 23.804 0 44.32-14.19 53.54-34.563.355-.783.187-1.703-.42-2.31-.608-.608-1.528-.776-2.311-.421-6.857 3.103-14.464 4.83-22.472 4.83-30.14 0-54.61-24.47-54.61-54.61 0-8.008 1.727-15.615 4.831-22.472zm-5.815 3.487c-16.344 9.441-27.352 27.106-27.352 47.322 0 30.14 24.47 54.609 54.609 54.609 20.216 0 37.881-11.008 47.322-27.352-5.956 2.038-12.342 3.143-18.985 3.143-32.418 0-58.737-26.319-58.737-58.737 0-6.642 1.105-13.029 3.143-18.985z"></path></svg>